<svg xmlns="http://www.w3.org/2000/svg" width="1180" height="520" viewBox="0 0 1180 520">
<defs>
<linearGradient id="bg" x1="0" y1="0" x2="0" y2="1"><stop offset="0%" stop-color="#ffffff"/><stop offset="100%" stop-color="#f8fbff"/></linearGradient>
</defs>
<rect width="1180" height="520" rx="24" fill="url(#bg)"/>
<text x="88" y="42" font-family="Inter,Arial,sans-serif" font-size="26" font-weight="700" fill="#162033">SINOMAX 月度 PB 估值圖（percentile / valuation zone 版）</text>
<text x="88" y="64" font-family="Inter,Arial,sans-serif" font-size="13" fill="#5f6f85">以月度股價重建；PB 更適合資產型 / 回報波動較大的個案，估值區帶按歷史月度分佈重建。</text>
<rect x="88" y="365.7" width="1036" height="62.3" fill="#16a34a" opacity="0.10" rx="10"/>
<rect x="88" y="272.7" width="1036" height="93.0" fill="#2563eb" opacity="0.09" rx="10"/>
<rect x="88" y="109.5" width="1036" height="163.2" fill="#f59e0b" opacity="0.10" rx="10"/>
<line x1="88" y1="403.0" x2="1124" y2="403.0" stroke="#dbe5f1" stroke-width="1"/>
<text x="76" y="407.0" text-anchor="end" font-family="Inter,Arial,sans-serif" font-size="12" fill="#6b7b91">0.1x</text>
<line x1="88" y1="365.7" x2="1124" y2="365.7" stroke="#dbe5f1" stroke-width="1"/>
<text x="76" y="369.7" text-anchor="end" font-family="Inter,Arial,sans-serif" font-size="12" fill="#6b7b91">0.2x</text>
<line x1="88" y1="329.6" x2="1124" y2="329.6" stroke="#dbe5f1" stroke-width="1"/>
<text x="76" y="333.6" text-anchor="end" font-family="Inter,Arial,sans-serif" font-size="12" fill="#6b7b91">0.3x</text>
<line x1="88" y1="272.7" x2="1124" y2="272.7" stroke="#dbe5f1" stroke-width="1"/>
<text x="76" y="276.7" text-anchor="end" font-family="Inter,Arial,sans-serif" font-size="12" fill="#6b7b91">0.5x</text>
<line x1="88" y1="109.5" x2="1124" y2="109.5" stroke="#dbe5f1" stroke-width="1"/>
<text x="76" y="113.5" text-anchor="end" font-family="Inter,Arial,sans-serif" font-size="12" fill="#6b7b91">1.1x</text>
<line x1="88" y1="365.7" x2="1124" y2="365.7" stroke="#16a34a" stroke-dasharray="6 6" stroke-width="1.2"/>
<text x="1124" y="357.7" text-anchor="end" font-family="Inter,Arial,sans-serif" font-size="12" fill="#16a34a">P25 0.21x</text>
<line x1="88" y1="329.6" x2="1124" y2="329.6" stroke="#64748b" stroke-dasharray="6 6" stroke-width="1.2"/>
<text x="1124" y="321.6" text-anchor="end" font-family="Inter,Arial,sans-serif" font-size="12" fill="#64748b">Median 0.34x</text>
<line x1="88" y1="272.7" x2="1124" y2="272.7" stroke="#f59e0b" stroke-dasharray="6 6" stroke-width="1.2"/>
<text x="1124" y="264.7" text-anchor="end" font-family="Inter,Arial,sans-serif" font-size="12" fill="#f59e0b">P75 0.53x</text>
<polyline points="88.0,148.9 96.6,109.5 105.3,174.9 113.9,191.8 122.5,191.8 131.2,230.6 139.8,234.0 148.4,213.6 157.1,193.2 165.7,196.6 174.3,206.8 183.0,169.3 191.6,206.6 200.2,191.2 208.9,178.8 217.5,210.0 226.1,182.0 234.8,216.2 243.4,210.0 252.0,210.0 260.7,225.6 269.3,225.6 277.9,225.6 286.6,225.6 295.2,254.6 303.8,263.3 312.5,266.4 321.1,278.1 329.7,286.9 338.4,310.5 347.0,316.3 355.6,310.5 364.3,295.8 372.9,301.6 381.5,317.8 390.2,329.6 398.8,343.2 407.4,353.3 416.1,357.0 424.7,362.1 433.3,364.9 442.0,353.0 450.6,355.8 459.2,362.7 467.9,366.8 476.5,365.5 485.1,374.6 493.8,381.5 502.4,380.4 511.0,365.7 519.7,374.6 528.3,388.0 536.9,385.7 545.6,365.7 554.2,374.6 562.8,359.9 571.5,339.0 580.1,301.2 588.7,314.5 597.4,359.5 606.0,359.7 614.6,335.6 623.3,307.4 631.9,303.4 640.5,311.5 649.2,319.5 657.8,309.5 666.4,333.6 675.1,347.6 683.7,347.6 692.3,351.7 701.0,355.7 709.6,365.7 718.2,359.2 726.9,366.8 735.5,372.9 744.1,398.3 752.8,393.2 761.4,397.1 770.0,401.0 778.7,401.0 787.3,402.6 795.9,394.4 804.6,403.0 813.2,401.4 821.8,383.7 830.5,390.3 839.1,387.7 847.7,394.3 856.4,394.9 865.0,397.7 873.6,395.4 882.3,380.0 890.9,360.4 899.5,363.2 908.2,369.7 916.8,360.9 925.4,369.5 934.1,365.5 942.7,322.8 951.3,334.7 960.0,303.1 968.6,307.3 977.2,297.4 985.9,263.4 994.5,234.7 1003.1,258.2 1011.8,284.3 1020.4,291.1 1029.0,288.7 1037.7,272.7 1046.3,305.7 1054.9,313.3 1063.6,302.0 1072.2,308.2 1080.8,308.7 1089.5,324.1 1098.1,325.6 1106.7,331.2 1115.4,348.6 1124.0,355.5" fill="none" stroke="#2563eb" stroke-width="3.2" stroke-linecap="round" stroke-linejoin="round"/>
<line x1="88.0" y1="434.0" x2="88.0" y2="428.0" stroke="#e6edf7" stroke-width="1"/>
<text x="88.0" y="482" text-anchor="middle" font-family="Inter,Arial,sans-serif" font-size="12" fill="#6b7b91">2016</text>
<line x1="165.7" y1="434.0" x2="165.7" y2="428.0" stroke="#e6edf7" stroke-width="1"/>
<text x="165.7" y="482" text-anchor="middle" font-family="Inter,Arial,sans-serif" font-size="12" fill="#6b7b91">2017</text>
<line x1="269.3" y1="434.0" x2="269.3" y2="428.0" stroke="#e6edf7" stroke-width="1"/>
<text x="269.3" y="482" text-anchor="middle" font-family="Inter,Arial,sans-serif" font-size="12" fill="#6b7b91">2018</text>
<line x1="372.9" y1="434.0" x2="372.9" y2="428.0" stroke="#e6edf7" stroke-width="1"/>
<text x="372.9" y="482" text-anchor="middle" font-family="Inter,Arial,sans-serif" font-size="12" fill="#6b7b91">2019</text>
<line x1="476.5" y1="434.0" x2="476.5" y2="428.0" stroke="#e6edf7" stroke-width="1"/>
<text x="476.5" y="482" text-anchor="middle" font-family="Inter,Arial,sans-serif" font-size="12" fill="#6b7b91">2020</text>
<line x1="580.1" y1="434.0" x2="580.1" y2="428.0" stroke="#e6edf7" stroke-width="1"/>
<text x="580.1" y="482" text-anchor="middle" font-family="Inter,Arial,sans-serif" font-size="12" fill="#6b7b91">2021</text>
<line x1="683.7" y1="434.0" x2="683.7" y2="428.0" stroke="#e6edf7" stroke-width="1"/>
<text x="683.7" y="482" text-anchor="middle" font-family="Inter,Arial,sans-serif" font-size="12" fill="#6b7b91">2022</text>
<line x1="787.3" y1="434.0" x2="787.3" y2="428.0" stroke="#e6edf7" stroke-width="1"/>
<text x="787.3" y="482" text-anchor="middle" font-family="Inter,Arial,sans-serif" font-size="12" fill="#6b7b91">2023</text>
<line x1="890.9" y1="434.0" x2="890.9" y2="428.0" stroke="#e6edf7" stroke-width="1"/>
<text x="890.9" y="482" text-anchor="middle" font-family="Inter,Arial,sans-serif" font-size="12" fill="#6b7b91">2024</text>
<line x1="994.5" y1="434.0" x2="994.5" y2="428.0" stroke="#e6edf7" stroke-width="1"/>
<text x="994.5" y="482" text-anchor="middle" font-family="Inter,Arial,sans-serif" font-size="12" fill="#6b7b91">2025</text>
<line x1="1098.1" y1="434.0" x2="1098.1" y2="428.0" stroke="#e6edf7" stroke-width="1"/>
<text x="1098.1" y="482" text-anchor="middle" font-family="Inter,Arial,sans-serif" font-size="12" fill="#6b7b91">2026</text>
<circle cx="1124.0" cy="355.5" r="6.5" fill="#dc2626" stroke="#fff" stroke-width="2"/>
<rect x="876.0" y="303.5" width="248" height="38" rx="19" fill="#dc2626" opacity="0.12"/>
<text x="1000.0" y="327.5" text-anchor="middle" font-family="Inter,Arial,sans-serif" font-size="12" font-weight="700" fill="#dc2626">2026-04 目前 0.25x｜40th pct｜Normal zone</text>
<rect x="88" y="462" width="14" height="14" rx="4" fill="#16a34a" opacity="0.22"/>
<text x="108" y="473" font-family="Inter,Arial,sans-serif" font-size="11" fill="#5f6f85">≤P25 深度低估帶</text>
<rect x="258" y="462" width="14" height="14" rx="4" fill="#2563eb" opacity="0.22"/>
<text x="278" y="473" font-family="Inter,Arial,sans-serif" font-size="11" fill="#5f6f85">P25–P75 常態帶</text>
<rect x="428" y="462" width="14" height="14" rx="4" fill="#f59e0b" opacity="0.22"/>
<text x="448" y="473" font-family="Inter,Arial,sans-serif" font-size="11" fill="#5f6f85">≥P75 偏貴帶</text>
<text x="88" y="504" font-family="Inter,Arial,sans-serif" font-size="11" fill="#94a3b8">方法：月度股價 × 最近可得全年 EPS / BVPS 錨點（預設每年 4 月切換至上一財年完整數字）；估值區帶按整段月度分佈 percentile 重建。</text>
</svg>