<svg xmlns="http://www.w3.org/2000/svg" width="1180" height="520" viewBox="0 0 1180 520">
<defs>
<linearGradient id="bg" x1="0" y1="0" x2="0" y2="1"><stop offset="0%" stop-color="#ffffff"/><stop offset="100%" stop-color="#f8fbff"/></linearGradient>
</defs>
<rect width="1180" height="520" rx="24" fill="url(#bg)"/>
<text x="88" y="42" font-family="Inter,Arial,sans-serif" font-size="26" font-weight="700" fill="#162033">EVA 月度 PE 估值圖（percentile / valuation zone 版）</text>
<text x="88" y="64" font-family="Inter,Arial,sans-serif" font-size="13" fill="#5f6f85">以月度股價重建；深淺色區帶對應歷史分佈 percentile，方便判斷現價位於偏低 / 常態 / 偏貴區。</text>
<rect x="88" y="371.3" width="1036" height="56.7" fill="#16a34a" opacity="0.10" rx="10"/>
<rect x="88" y="315.1" width="1036" height="56.2" fill="#2563eb" opacity="0.09" rx="10"/>
<rect x="88" y="109.5" width="1036" height="205.6" fill="#f59e0b" opacity="0.10" rx="10"/>
<line x1="88" y1="384.0" x2="1124" y2="384.0" stroke="#dbe5f1" stroke-width="1"/>
<text x="76" y="388.0" text-anchor="end" font-family="Inter,Arial,sans-serif" font-size="12" fill="#6b7b91">4.3x</text>
<line x1="88" y1="371.3" x2="1124" y2="371.3" stroke="#dbe5f1" stroke-width="1"/>
<text x="76" y="375.3" text-anchor="end" font-family="Inter,Arial,sans-serif" font-size="12" fill="#6b7b91">5.6x</text>
<line x1="88" y1="344.5" x2="1124" y2="344.5" stroke="#dbe5f1" stroke-width="1"/>
<text x="76" y="348.5" text-anchor="end" font-family="Inter,Arial,sans-serif" font-size="12" fill="#6b7b91">8.2x</text>
<line x1="88" y1="315.1" x2="1124" y2="315.1" stroke="#dbe5f1" stroke-width="1"/>
<text x="76" y="319.1" text-anchor="end" font-family="Inter,Arial,sans-serif" font-size="12" fill="#6b7b91">11.1x</text>
<line x1="88" y1="109.5" x2="1124" y2="109.5" stroke="#dbe5f1" stroke-width="1"/>
<text x="76" y="113.5" text-anchor="end" font-family="Inter,Arial,sans-serif" font-size="12" fill="#6b7b91">31.3x</text>
<line x1="88" y1="371.3" x2="1124" y2="371.3" stroke="#16a34a" stroke-dasharray="6 6" stroke-width="1.2"/>
<text x="1124" y="363.3" text-anchor="end" font-family="Inter,Arial,sans-serif" font-size="12" fill="#16a34a">P25 5.58x</text>
<line x1="88" y1="344.5" x2="1124" y2="344.5" stroke="#64748b" stroke-dasharray="6 6" stroke-width="1.2"/>
<text x="1124" y="336.5" text-anchor="end" font-family="Inter,Arial,sans-serif" font-size="12" fill="#64748b">Median 8.22x</text>
<line x1="88" y1="315.1" x2="1124" y2="315.1" stroke="#f59e0b" stroke-dasharray="6 6" stroke-width="1.2"/>
<text x="1124" y="307.1" text-anchor="end" font-family="Inter,Arial,sans-serif" font-size="12" fill="#f59e0b">P75 11.11x</text>
<polyline points="88.0,368.4 96.6,379.4 105.3,384.0 113.9,368.2 122.5,366.9 131.2,371.9 139.8,371.3 148.4,371.3 157.1,358.7 165.7,348.9 174.3,344.9 183.0,342.9 191.6,109.6 200.2,121.0 208.9,144.1 217.5,159.4 226.1,146.6 234.8,148.3 243.4,148.3 252.0,109.5 260.7,122.4 269.3,122.4 277.9,117.3 286.6,109.5 295.2,316.4 303.8,335.9 312.5,340.0 321.1,352.3 329.7,357.4 338.4,363.8 347.0,363.8 355.6,355.5 364.3,350.3 372.9,335.8 381.5,336.8 390.2,344.1 398.8,316.2 407.4,315.3 416.1,318.5 424.7,323.4 433.3,321.7 442.0,325.6 450.6,328.8 459.2,333.7 467.9,330.5 476.5,338.6 485.1,348.3 493.8,348.3 502.4,315.1 511.0,315.1 519.7,322.7 528.3,300.5 536.9,297.8 545.6,295.0 554.2,275.6 562.8,256.2 571.5,242.3 580.1,225.7 588.7,228.5 597.4,220.2" fill="none" stroke="#2563eb" stroke-width="3.2" stroke-linecap="round" stroke-linejoin="round"/>
<polyline points="709.6,291.1 718.2,288.6 726.9,227.9 735.5,284.8 744.1,305.7 752.8,329.2 761.4,314.8 770.0,333.0 778.7,315.7 787.3,318.6 795.9,333.0 804.6,344.5 813.2,373.8 821.8,370.4 830.5,362.9 839.1,377.1 847.7,377.1 856.4,367.8 865.0,370.1 873.6,367.0 882.3,375.5 890.9,374.8 899.5,370.9 908.2,367.0 916.8,379.8 925.4,378.5 934.1,381.3 942.7,382.0 951.3,376.5 960.0,379.7 968.6,380.4 977.2,380.4 985.9,383.2 994.5,376.8 1003.1,376.1 1011.8,375.4 1020.4,378.3 1029.0,376.9 1037.7,374.1 1046.3,364.1 1054.9,343.5 1063.6,341.6 1072.2,357.6 1080.8,368.5 1089.5,360.5 1098.1,363.4 1106.7,372.8 1115.4,371.4 1124.0,374.0" fill="none" stroke="#2563eb" stroke-width="3.2" stroke-linecap="round" stroke-linejoin="round"/>
<line x1="88.0" y1="434.0" x2="88.0" y2="428.0" stroke="#e6edf7" stroke-width="1"/>
<text x="88.0" y="482" text-anchor="middle" font-family="Inter,Arial,sans-serif" font-size="12" fill="#6b7b91">2016</text>
<line x1="165.7" y1="434.0" x2="165.7" y2="428.0" stroke="#e6edf7" stroke-width="1"/>
<text x="165.7" y="482" text-anchor="middle" font-family="Inter,Arial,sans-serif" font-size="12" fill="#6b7b91">2017</text>
<line x1="269.3" y1="434.0" x2="269.3" y2="428.0" stroke="#e6edf7" stroke-width="1"/>
<text x="269.3" y="482" text-anchor="middle" font-family="Inter,Arial,sans-serif" font-size="12" fill="#6b7b91">2018</text>
<line x1="372.9" y1="434.0" x2="372.9" y2="428.0" stroke="#e6edf7" stroke-width="1"/>
<text x="372.9" y="482" text-anchor="middle" font-family="Inter,Arial,sans-serif" font-size="12" fill="#6b7b91">2019</text>
<line x1="476.5" y1="434.0" x2="476.5" y2="428.0" stroke="#e6edf7" stroke-width="1"/>
<text x="476.5" y="482" text-anchor="middle" font-family="Inter,Arial,sans-serif" font-size="12" fill="#6b7b91">2020</text>
<line x1="580.1" y1="434.0" x2="580.1" y2="428.0" stroke="#e6edf7" stroke-width="1"/>
<text x="580.1" y="482" text-anchor="middle" font-family="Inter,Arial,sans-serif" font-size="12" fill="#6b7b91">2021</text>
<line x1="683.7" y1="434.0" x2="683.7" y2="428.0" stroke="#e6edf7" stroke-width="1"/>
<text x="683.7" y="482" text-anchor="middle" font-family="Inter,Arial,sans-serif" font-size="12" fill="#6b7b91">2022</text>
<line x1="787.3" y1="434.0" x2="787.3" y2="428.0" stroke="#e6edf7" stroke-width="1"/>
<text x="787.3" y="482" text-anchor="middle" font-family="Inter,Arial,sans-serif" font-size="12" fill="#6b7b91">2023</text>
<line x1="890.9" y1="434.0" x2="890.9" y2="428.0" stroke="#e6edf7" stroke-width="1"/>
<text x="890.9" y="482" text-anchor="middle" font-family="Inter,Arial,sans-serif" font-size="12" fill="#6b7b91">2024</text>
<line x1="994.5" y1="434.0" x2="994.5" y2="428.0" stroke="#e6edf7" stroke-width="1"/>
<text x="994.5" y="482" text-anchor="middle" font-family="Inter,Arial,sans-serif" font-size="12" fill="#6b7b91">2025</text>
<line x1="1098.1" y1="434.0" x2="1098.1" y2="428.0" stroke="#e6edf7" stroke-width="1"/>
<text x="1098.1" y="482" text-anchor="middle" font-family="Inter,Arial,sans-serif" font-size="12" fill="#6b7b91">2026</text>
<circle cx="1124.0" cy="374.0" r="6.5" fill="#dc2626" stroke="#fff" stroke-width="2"/>
<rect x="876.0" y="322.0" width="248" height="38" rx="19" fill="#dc2626" opacity="0.12"/>
<text x="1000.0" y="346.0" text-anchor="middle" font-family="Inter,Arial,sans-serif" font-size="12" font-weight="700" fill="#dc2626">2026-04 目前 5.32x｜20th pct｜Deep value zone</text>
<rect x="88" y="462" width="14" height="14" rx="4" fill="#16a34a" opacity="0.22"/>
<text x="108" y="473" font-family="Inter,Arial,sans-serif" font-size="11" fill="#5f6f85">≤P25 深度低估帶</text>
<rect x="258" y="462" width="14" height="14" rx="4" fill="#2563eb" opacity="0.22"/>
<text x="278" y="473" font-family="Inter,Arial,sans-serif" font-size="11" fill="#5f6f85">P25–P75 常態帶</text>
<rect x="428" y="462" width="14" height="14" rx="4" fill="#f59e0b" opacity="0.22"/>
<text x="448" y="473" font-family="Inter,Arial,sans-serif" font-size="11" fill="#5f6f85">≥P75 偏貴帶</text>
<text x="88" y="504" font-family="Inter,Arial,sans-serif" font-size="11" fill="#94a3b8">方法：月度股價 × 最近可得全年 EPS / BVPS 錨點（預設每年 4 月切換至上一財年完整數字）；估值區帶按整段月度分佈 percentile 重建。</text>
</svg>